<?xml version="1.0" encoding="utf-8"?>
<!-- Generator: Adobe Illustrator 16.0.0, SVG Export Plug-In . SVG Version: 6.00 Build 0)  -->
<!DOCTYPE svg PUBLIC "-//W3C//DTD SVG 1.1//EN" "http://www.w3.org/Graphics/SVG/1.1/DTD/svg11.dtd">
<svg version="1.1" xmlns="http://www.w3.org/2000/svg" xmlns:xlink="http://www.w3.org/1999/xlink" x="0px" y="0px" width="1366px"
	 height="768px" viewBox="0 0 1366 768" enable-background="new 0 0 1366 768" xml:space="preserve">
<g id="fish">
	<g>
		<g>
			<g>
				<polygon fill="#486FB6" points="383.512,615.863 393.144,634.126 408.754,634.126 399.131,615.863 				"/>
				<polygon fill="#486FB6" points="408.754,587.772 393.144,587.772 383.512,606.021 399.131,606.021 				"/>
			</g>
			<path fill="#88C9EF" d="M393.447,592.9c-13.354,0-24.979,7.264-31.225,18.04c6.245,10.78,17.871,18.04,31.225,18.04
				c13.349,0,24.979-7.26,31.221-18.04C418.426,600.164,406.796,592.9,393.447,592.9z"/>
			<path fill="#486FB6" d="M419.552,617.328c4.38,3.801,10.082,6.111,16.336,6.111v-24.993c-6.254,0-11.956,2.314-16.336,6.111
				V617.328z"/>
			<path fill="#486FB6" d="M362.222,610.94c4.478,7.719,11.711,13.62,20.364,16.358c4.616-3.948,7.549-9.802,7.549-16.354
				c0-6.553-2.934-12.41-7.549-16.354C373.933,597.324,366.7,603.231,362.222,610.94z"/>
			<circle fill="#6896CF" cx="377.886" cy="610.94" r="4.469"/>
		</g>
	</g>
	<g>
		<g>
			<g>
				<polygon fill="#486FB6" points="516.598,606.031 506.966,587.769 491.356,587.769 500.979,606.031 				"/>
				<polygon fill="#486FB6" points="491.356,634.122 506.966,634.122 516.598,615.873 500.979,615.873 				"/>
			</g>
			<path fill="#88C9EF" d="M506.664,628.994c13.354,0,24.979-7.264,31.225-18.04c-6.245-10.78-17.871-18.04-31.225-18.04
				c-13.349,0-24.979,7.26-31.221,18.04C481.684,621.73,493.314,628.994,506.664,628.994z"/>
			<path fill="#486FB6" d="M480.558,604.566c-4.38-3.801-10.082-6.111-16.336-6.111v24.993c6.254,0,11.956-2.314,16.336-6.111
				V604.566z"/>
			<path fill="#486FB6" d="M537.888,610.954c-4.478-7.719-11.711-13.62-20.364-16.358c-4.616,3.948-7.549,9.802-7.549,16.354
				c0,6.553,2.934,12.41,7.549,16.354C526.177,624.57,533.41,618.663,537.888,610.954z"/>
			<circle fill="#6896CF" cx="522.225" cy="610.954" r="4.469"/>
		</g>
	</g>
</g>
<g id="koch">
	<g>
		<polygon fill="#2AAC7B" points="411.982,471.054 377.052,509.086 377.052,488.813 		"/>
		<polygon fill="#21875D" points="373.869,499.837 415.165,530.838 394.517,526.791 		"/>
		<polygon fill="#76C39C" points="371.524,460.116 373.336,531.25 385.228,531.25 		"/>
		<radialGradient id="SVGID_1_" cx="431.752" cy="499.8359" r="23.6441" gradientUnits="userSpaceOnUse">
			<stop  offset="0" style="stop-color:#22AC38"/>
			<stop  offset="0.2" style="stop-color:#009A43;stop-opacity:0.3"/>
			<stop  offset="0.9624" style="stop-color:#009A44;stop-opacity:0.7113"/>
			<stop  offset="1" style="stop-color:#009944;stop-opacity:0.7"/>
		</radialGradient>
		<path fill="url(#SVGID_1_)" d="M431.753,476.793l-24.23,17.604l9.255,28.483h29.949l9.255-28.483L431.753,476.793z
			 M444.231,516.83l-27.454,6.05l-1.085-23.649l16.061-22.438l21.691,25.415L444.231,516.83z"/>
		<polygon fill="#76C39C" points="463.113,483.605 507.207,476.793 464.005,490.416 		"/>
		<polygon fill="#2AAC7B" points="471.192,485.005 472.248,533.166 462.022,483.604 		"/>
		<polygon fill="#76C39C" points="468.851,516.83 477.01,522.88 472.248,533.166 		"/>
		<polygon fill="#21875D" points="477.01,522.88 500.781,521.746 472.248,533.166 		"/>
		<polygon fill="#76C39C" points="512.943,533.362 516.109,471.054 520.239,533.166 		"/>
		<polygon fill="#2AAC7B" points="515.018,496.671 556.92,497.131 514.177,509.086 		"/>
		<polygon fill="#2AAC7B" points="543.266,474.122 540.223,536.437 539.119,474.131 		"/>
	</g>
</g>
</svg>
